<?xml version="1.0" encoding="utf-8"?>
<!-- Generator: Adobe Illustrator 27.0.1, SVG Export Plug-In . SVG Version: 6.00 Build 0)  -->
<svg version="1.1" id="Camada_1" xmlns="http://www.w3.org/2000/svg" xmlns:xlink="http://www.w3.org/1999/xlink" x="0px" y="0px"
	 width="115.85px" height="88.72px" viewBox="0 0 115.85 88.72" style="enable-background:new 0 0 115.85 88.72;"
	 xml:space="preserve">
<style type="text/css">
	.st0{fill:#45A3AD;}
	.st1{fill:#7B2458;}
	.st2{fill:#00A5AF;}
	.st3{fill:#812D65;}
</style>
<path class="st0" d="M56.44,22.26c-0.12-1.72-0.03-3.43-0.07-5.15c-0.01-0.42,0.16-0.56,0.56-0.54c3.52,0.23,6.62,1.44,9.22,3.88
	c2.42,2.27,3.91,5.06,4.36,8.33c0.61,4.45-0.61,8.39-3.65,11.71c-2.33,2.55-5.25,4.07-8.68,4.43c-2.04,0.22-1.79,0.61-1.79-1.51
	c-0.01-2.46-0.01-4.92,0.01-7.38c0-0.31-0.14-0.8,0.24-0.89c0.42-0.1,0.64,0.35,0.79,0.7c0.44,0.98,0.43,2.06,0.66,3.09
	c0.03,0.14,0.06,0.29,0.09,0.43c0.1,0.62,0.23,1.26,0.93,1.46c0.72,0.19,1.33-0.16,1.86-0.61c0.98-0.83,1.39-1.97,1.54-3.19
	c0.23-1.78,0.8-3.43,1.53-5.07c1-2.23,1.39-4.59,1.07-7.05c-0.37-2.8-3.1-3.74-4.99-3.48c-0.97,0.13-1.87,0.51-2.81,0.74
	C57.02,22.22,56.74,22.27,56.44,22.26C56.44,22.25,56.44,22.26,56.44,22.26z"/>
<path class="st0" d="M60.77,37.04c0.03,0.75-0.17,1.36-0.69,1.82c-0.38,0.34-0.76,0.24-0.93-0.25c-0.23-0.66-0.15-1.33,0.02-1.99
	c0.12-0.45,0.37-0.86,0.91-0.78c0.53,0.08,0.65,0.54,0.69,1.01C60.78,36.94,60.77,37.02,60.77,37.04z"/>
<g>
	<polygon class="st1" points="56.44,22.25 56.44,22.26 56.44,22.26 	"/>
	<path class="st1" d="M56.42,34.23c0.01-3.99,0.01-7.98,0.01-11.97c-0.52,0.11-1-0.05-1.48-0.22c-1.13-0.39-2.27-0.63-3.48-0.58
		c-1.65,0.06-3.11,1.08-3.59,2.64c-0.43,1.41-0.45,2.86-0.14,4.31c-0.02,0.03-0.01,0.06,0.02,0.07c0.08,0.09,0.13,0.19,0.16,0.3
		c0.06,0.21,0.06,0.45,0.11,0.66C48,29.23,48.01,29,47.94,28.79c-0.03-0.11-0.08-0.21-0.16-0.3c0,0.67,0.16,1.3,0.38,1.93
		c-0.02,0.33,0.14,0.6,0.27,0.88c0.51,1.42,1.34,2.7,1.64,4.2c-0.01,0.19-0.03,0.38,0.13,0.53c-0.04,0.32,0.06,0.62,0.19,0.9
		c0.2,1.32,0.69,2.51,1.68,3.43c1.05,0.98,2.16,0.68,2.59-0.67c0.06-0.2,0.09-0.41,0.13-0.62c0.08-0.69,0.16-1.37,0.25-2.06
		c0.03-0.02,0.04-0.04,0.02-0.08c0.19-0.18,0.12-0.44,0.19-0.65c0.18-0.59,0.44-1.1,1.06-1.33c-0.01-0.92-0.01-1.84-0.02-2.76
		c-0.8-0.06-1.61-0.14-2.41-0.24c0.8,0.1,1.6,0.18,2.41,0.24c0.01,0.92,0.01,1.84,0.02,2.76C56.54,34.74,56.42,34.47,56.42,34.23z
		 M54,38.29c0.08-0.09,0.12-0.19,0.14-0.29C54.12,38.1,54.08,38.2,54,38.29c-0.42,0.86-0.78,0.88-1.32,0.1
		c-0.27-0.38-0.47-0.79-0.6-1.24c-0.04-0.5-0.24-1.02,0.18-1.47l0,0c0.68-0.48,1.33-0.26,1.6,0.55C54.1,36.91,54,37.6,54,38.29z"/>
</g>
<path class="st1" d="M33.3,59.54c-0.05-0.04-0.1-0.09-0.14-0.13c0,0,0,0,0,0c-0.08-0.18-0.19-0.32-0.39-0.37l0,0
	c-0.04-0.03-0.09-0.06-0.13-0.1c0,0-0.03-0.02-0.03-0.02c-0.05-0.08-0.11-0.15-0.22-0.13l-0.01,0c-0.51-0.39-1.11-0.58-1.72-0.76
	c-1.08-0.32-2.22-0.46-3.23-1.03c-0.39-0.66-0.34-0.98,0.23-1.44c1.79-0.5,3.48-0.17,5.05,0.74c0.43,0.25,0.59,0.14,0.76-0.24
	c0.48-1.04,0.09-2.2-1.08-2.75c-2.29-1.08-4.66-1.1-7-0.16c-0.94,0.38-1.65,1.1-1.79,2.2l0,0c-0.03,0.03-0.04,0.06-0.02,0.1
	c-0.19,0.48-0.19,0.96,0,1.44c0,0,0,0-0.01-0.01c-0.01,0.19-0.01,0.38,0.14,0.53c0-0.14,0.01-0.27,0.01-0.41h0
	c0,0.14-0.01,0.27-0.01,0.41c0.27,0.94,0.9,1.53,1.79,1.89c0.15,0.16,0.34,0.22,0.54,0.3c1.26,0.55,2.66,0.66,3.91,1.23c0,0,0,0,0,0
	c0.05,0.03,0.09,0.07,0.14,0.1c0,0,0.03,0.02,0.03,0.02c0.03,0.03,0.07,0.06,0.1,0.1c0,0,0.03,0.03,0.03,0.03
	c0.03,0.04,0.06,0.08,0.09,0.12c0,0,0.01,0.02,0.01,0.02c0.04,0.09,0.07,0.18,0.11,0.27c-0.03,0.33-0.19,0.61-0.38,0.86c0,0,0,0,0,0
	c-0.08,0.05-0.16,0.09-0.24,0.14c0,0-0.01,0.01-0.01,0.01c-0.1,0-0.2,0.01-0.26,0.11c-0.67,0.15-1.35,0.1-2.03,0.12
	c-0.18-0.2-0.42-0.1-0.64-0.11c-0.98-0.32-1.98-0.58-2.81-1.26c-0.24-0.2-0.37,0.03-0.49,0.21c-0.59,0.85-0.34,2.11,0.59,2.82
	c1.7,1.28,3.68,1.23,5.65,1.09c0.93-0.07,1.84-0.27,2.65-0.79c0.63-0.41,1.22-0.85,1.28-1.69c0.03-0.04,0.07-0.08,0.1-0.12
	l0.02-0.01c0-0.12,0-0.24,0-0.36c-0.64-0.03-1.27,0-1.91,0.01c0.64-0.01,1.28-0.04,1.91-0.01c0,0.12,0,0.24,0,0.36
	C34.28,61.64,34.19,60.52,33.3,59.54z"/>
<g>
	<path class="st2" d="M65.67,67.01c0-0.31-0.03-0.52-0.44-0.52c-0.43,0-0.42,0.24-0.42,0.53c0,0.28,0,0.55,0,0.83
		c0,0.87,0,0.87-0.85,0.83c-1.27-0.06-2.28,0.84-2.25,2.13c0.02,1.26,0.56,2.25,2.07,2.3c0.49,0.02,0.98-0.01,1.46,0.01
		c0.34,0.01,0.44-0.12,0.44-0.45c-0.01-0.95-0.01-1.91-0.01-2.86C65.66,68.88,65.66,67.95,65.67,67.01z"/>
	<path class="st2" d="M57.8,70.97c0-0.57-0.01-1.15,0-1.72c0-0.32-0.07-0.53-0.46-0.53c-0.37,0-0.48,0.17-0.47,0.51
		c0.01,0.74,0.01,1.49,0,2.23c-0.01,0.65-0.39,0.98-1.06,0.98c-0.56-0.01-0.8-0.28-0.81-0.97c-0.01-0.7-0.01-1.4,0-2.1
		c0.01-0.36-0.04-0.6-0.5-0.61c-0.47-0.01-0.44,0.27-0.44,0.58c0.01,0.74,0,1.49,0,2.23c0.01,1.35,1.1,2.01,2.32,1.42
		c0.2-0.1,0.35-0.3,0.56,0.04c0.13,0.21,0.44,0.13,0.66,0.07c0.29-0.07,0.19-0.34,0.19-0.54C57.81,72.03,57.8,71.5,57.8,70.97z"/>
	<path class="st2" d="M72.85,72.19c-0.98,0.39-1.87,0.18-2.24-0.54c-0.2-0.38-0.24-0.65,0.33-0.61c0.34,0.02,0.68,0,1.02,0
		c0,0,0,0,0,0c0.4,0,0.81,0,1.21,0c0.23,0,0.32-0.08,0.33-0.34c0.03-0.79-0.51-1.65-1.22-1.9c-0.84-0.29-1.81-0.01-2.28,0.65
		c-0.64,0.91-0.57,2.3,0.15,3.13c0.59,0.68,2.02,0.83,2.97,0.33c0.35-0.19,0.48-0.47,0.33-0.78C73.28,71.79,73.04,72.11,72.85,72.19
		z"/>
	<path class="st2" d="M50.19,72.47c-0.48,0.09-0.39-0.26-0.39-0.52c-0.01-0.3,0-0.59,0-0.89c0-0.25,0-0.51,0-0.76
		c-0.01-1.04-0.5-1.57-1.52-1.65c-0.9-0.07-1.61,0.41-1.58,1.06c0.01,0.12-0.04,0.28,0.11,0.34c0.14,0.06,0.23-0.07,0.32-0.15
		c0.33-0.3,0.72-0.44,1.16-0.4c0.32,0.03,0.54,0.22,0.59,0.57c0.05,0.35-0.15,0.48-0.44,0.58c-0.36,0.12-0.72,0.25-1.05,0.44
		c-0.67,0.38-0.88,0.9-0.64,1.47c0.24,0.57,0.85,0.8,1.57,0.54c0.33-0.12,0.59-0.21,0.94,0.03c0.32,0.22,0.7,0.05,1.01-0.15
		c0.12-0.07,0.17-0.19,0.15-0.33C50.4,72.52,50.31,72.45,50.19,72.47z"/>
	<path class="st2" d="M42.42,70.86c-0.19-0.16-0.44-0.25-0.64-0.41c-0.25-0.21-0.82-0.29-0.6-0.75c0.22-0.44,0.69-0.23,1.07-0.12
		c0.04,0.01,0.08,0.04,0.12,0.05c0.18,0.05,0.4,0.34,0.52,0.02c0.1-0.25,0.14-0.6-0.23-0.76c-0.39-0.17-0.8-0.26-1.23-0.24
		c-0.57,0.04-1.04,0.28-1.22,0.85c-0.19,0.59,0.12,1.03,0.58,1.36c0.33,0.23,0.68,0.42,1.02,0.64c0.22,0.14,0.43,0.33,0.33,0.62
		c-0.1,0.29-0.38,0.31-0.64,0.3c-0.35,0-0.65-0.16-0.95-0.33c-0.14-0.08-0.33-0.25-0.38,0.04c-0.06,0.33-0.11,0.69,0.33,0.85
		c0.34,0.12,0.69,0.21,1.05,0.2c0.81,0,1.32-0.29,1.52-0.89C43.29,71.63,42.87,71.23,42.42,70.86z"/>
	<path class="st2" d="M56.03,67.67c0.23-0.3,0.46-0.6,0.68-0.91c0.2-0.28,0.13-0.43-0.23-0.42c-0.71-0.02-0.68,0.64-0.94,1.03
		c-0.07,0.11-0.2,0.28-0.03,0.39C55.71,67.89,55.9,67.85,56.03,67.67z"/>
</g>
<g>
	<path class="st3" d="M73.47,47.22c-1.09,0-1.76,0.32-1.99,1.03c-0.44,1.36,0.16,2.69,2.15,2.59c0.67-0.03,1.35-0.16,1.72-0.87
		C76,48.75,75.42,47.09,73.47,47.22z"/>
	<path class="st3" d="M75.04,52.72c-0.99-0.13-1.98-0.09-2.97-0.03c-0.49,0.03-0.62,0.25-0.62,0.72c0.02,3.39,0,6.78,0,10.16
		c0,0.28,0.02,0.55,0.14,0.8c0.04,0.09,0.07,0.2,0.13,0.28c0.62,0.81,2.73,1.06,3.53,0.43c0.21-0.17,0.16-0.36,0.15-0.57
		c0.01-3.81,0.01-7.62,0.03-11.43C75.43,52.78,75.27,52.75,75.04,52.72z M75.3,63.37c0-0.13,0-0.26-0.01-0.38h0
		C75.3,63.12,75.3,63.25,75.3,63.37z M71.61,56.5L71.61,56.5c0-0.51,0-1.02-0.01-1.52C71.61,55.49,71.6,55.99,71.61,56.5z"/>
	<path class="st3" d="M47.79,57.64c0.04,0,0.08,0.01,0.12,0.01c-0.01-0.2,0.05-0.41-0.1-0.58c0,0,0.01-0.04,0.01-0.04l-0.03-0.03
		c0-0.43-0.15-0.8-0.37-1.16c0,0,0,0,0,0c-0.14-0.49-0.41-0.91-0.78-1.26c-0.04-0.05-0.08-0.1-0.11-0.15c0,0,0.01,0.01,0.01,0.01
		c0-0.08-0.04-0.13-0.13-0.15c-0.07-0.01-0.12-0.05-0.13-0.13c0,0,0.01,0.01,0.01,0.01c-0.04-0.04-0.09-0.08-0.13-0.13c0,0,0,0,0,0
		c-0.02-0.08-0.07-0.12-0.15-0.12c-0.16-0.14-0.3-0.29-0.48-0.4c-1.53-1.04-3.25-1.13-5-0.93c-1.08,0.12-2.11,0.43-2.94,1.22
		c-0.63,0.41-1.07,0.98-1.38,1.66h0c-0.29,0.47-0.49,0.96-0.55,1.51c-0.03,0.13-0.06,0.26-0.09,0.4c-0.09,0.17-0.07,0.34-0.03,0.51
		c-0.28,1.07-0.15,2.13,0.12,3.18c0,0,0,0,0,0c0.01,0.18,0.01,0.36,0.13,0.51c0.11,0.52,0.35,0.97,0.64,1.4
		c0.2,0.26,0.38,0.55,0.6,0.79c2.18,2.42,7.8,2.4,9.65-0.42c0.03-0.04,0.05-0.07,0.08-0.11c0.03-0.04,0.06-0.09,0.09-0.13
		c0.3-0.24,0.37-0.6,0.52-0.93c0.45-0.56,0.33-1.27,0.51-1.91c0.15-0.88,0.14-1.76-0.01-2.64C47.86,57.65,47.82,57.65,47.79,57.64z
		 M44.09,59.3c-0.02,0.66-0.17,1.29-0.35,1.91c-0.77,1.26-1.69,1.66-2.84,1.25c-0.71-0.25-0.96-0.87-1.23-1.47
		c-0.08-0.17-0.11-0.36-0.16-0.54l0,0c-0.13-1.11-0.14-2.22,0.11-3.31c0.22-0.38,0.44-0.76,0.66-1.14v0c1.3-0.76,2.17-0.68,3.16,0.3
		c0-0.1,0.01-0.19,0.04-0.26c-0.02,0.07-0.03,0.15-0.04,0.26c0.24,0.43,0.41,0.88,0.54,1.35C44.02,58.2,44.06,58.75,44.09,59.3
		c0.94,0,1.88-0.01,2.83,0C45.98,59.29,45.03,59.3,44.09,59.3z M39.38,60.45c0.01,0,0.03,0,0.04,0
		C39.41,60.45,39.4,60.45,39.38,60.45c-0.01,0.01-0.02,0.02-0.03,0.03C39.36,60.46,39.38,60.46,39.38,60.45z"/>
	<path class="st3" d="M68.62,52.67c-1.28-0.24-2.47,0.33-3.17,1.49l0,0.01c-0.04,0.05-0.08,0.1-0.12,0.15c0,0,0.01-0.01,0.01-0.01
		c-0.03,0.05-0.07,0.1-0.1,0.15l-0.04,0.02l0,0.04c-0.04,0.06-0.08,0.13-0.12,0.19l0-0.01c-0.03,0.04-0.06,0.09-0.09,0.13
		c-0.04,0.02-0.06,0.06-0.05,0.1c-0.1,0.07-0.13,0.17-0.11,0.29c-0.04,0.09-0.08,0.17-0.12,0.26c-0.08,0-0.17,0.28-0.23,0.02
		c-0.06-0.25-0.03-0.52-0.04-0.79c0.02-0.55,0.02-1.1,0.06-1.64c0.02-0.27-0.11-0.3-0.32-0.34c-0.84-0.16-1.69-0.08-2.53-0.07
		c-0.91,0.01-0.91,0.05-0.91,0.98c0,0.32,0.02,0.63,0.02,0.95c0,0.55,0,1.1,0,1.65c0,0.42,0,0.85,0,1.27c0,0.47,0,0.93,0,1.4
		c0,0.59,0,1.19,0,1.78c0,0.59,0,1.19,0,1.78c-0.01,0.42-0.03,0.84-0.02,1.26c0.03,0.83,0.47,1.36,1.29,1.56
		c0.9,0.22,1.74,0.08,2.54-0.38c0-0.77-0.01-1.54-0.01-2.31c-0.63-0.03-1.27,0-1.9,0.01c0.63-0.01,1.27-0.04,1.9-0.01
		c0,0.77,0.01,1.54,0.01,2.31c0.21-0.13,0.12-0.34,0.12-0.52c0-1.45,0-2.9-0.01-4.35c0.2-0.22,0.1-0.5,0.14-0.76c0,0,0,0,0,0
		c0.13-0.38,0.26-0.75,0.4-1.13c0.16-0.08,0.21-0.23,0.25-0.39c0,0,0,0,0,0c0.04-0.04,0.09-0.09,0.13-0.13c0,0-0.01,0.01-0.01,0.01
		c0.05-0.04,0.09-0.09,0.14-0.13c0,0-0.01,0.01-0.01,0.01c0.04-0.04,0.09-0.09,0.13-0.13c0.05-0.04,0.11-0.09,0.16-0.13
		c0.33-0.35,0.83-0.33,1.23-0.53c0.43,0.12,0.81-0.15,1.23-0.12c0.45,0.04,0.75-0.16,0.93-0.56c0.1-0.04,0.14-0.11,0.12-0.21
		c0.03-0.03,0.04-0.07,0.02-0.11c-0.01-0.05-0.02-0.1-0.02-0.14c0.01,0.05,0.02,0.1,0.02,0.14c0.07-0.08,0.13-0.16,0.1-0.28
		c0.01-0.08,0.02-0.15,0.03-0.23c0.21-0.58,0.17-1.15-0.06-1.72C69.46,53.06,69.12,52.76,68.62,52.67z"/>
	<path class="st3" d="M59.1,54.3c-0.09-1.2-0.64-1.67-1.84-1.66c-1.11,0-1.91,0.54-2.51,1.42c-0.36,0.29-0.48,0.7-0.62,1.11
		c-0.1,0.08-0.13,0.18-0.12,0.3c-0.33-0.01-0.2-0.27-0.2-0.43c-0.02-0.59-0.02-1.19,0-1.78c0.01-0.32-0.05-0.51-0.43-0.54
		c-0.99-0.1-1.98-0.11-2.97,0.01c-0.26,0.03-0.36,0.13-0.35,0.4c0.02,2.1,0.02,4.2,0.03,6.29c0,1.19,0,2.38,0,3.56
		c-0.01,0.23-0.02,0.47-0.02,0.7c0,0.76,0.32,1.3,0.99,1.53c0.99,0.34,1.95,0.23,2.85-0.32c0.23-0.18,0.11-0.43,0.12-0.65
		c0.05-1.69-0.11-3.39,0.11-5.08c-1.31,0-2.61,0-3.92,0c1.31,0,2.61,0,3.92,0c0.26-0.45,0.27-1.03,0.66-1.42
		c0.08,0.01,0.12-0.03,0.13-0.11c0,0,0,0,0,0c0.79-0.86,1.86-0.93,2.91-1.01c0.34-0.02,0.62-0.06,0.77-0.4
		c0.14-0.03,0.14-0.14,0.14-0.25c0,0,0,0,0,0C59.06,55.47,59.15,54.89,59.1,54.3z M54.15,55.48c0.11,0.11,0.23,0.13,0.35,0.14
		C54.38,55.62,54.26,55.59,54.15,55.48c-0.04,0-0.09-0.01-0.13-0.01l0,0C54.06,55.48,54.11,55.48,54.15,55.48z M53.48,61.84
		c-1.09-0.07-2.18-0.16-3.27-0.12c-0.04,0.32,0.04,0.64-0.01,0.96c0.05-0.32-0.03-0.64,0.01-0.96
		C51.3,61.68,52.39,61.76,53.48,61.84z M50.22,56.37c0,0.25-0.01,0.51-0.01,0.76h0C50.21,56.88,50.22,56.63,50.22,56.37z"/>
	<path class="st3" d="M89.68,57.24c0.02-0.04,0.01-0.07-0.02-0.1c-0.01-0.18,0.05-0.38-0.1-0.54c0.01-0.04,0-0.07-0.03-0.1
		c-0.04-0.59-0.31-1.07-0.66-1.53c-0.3-0.6-0.81-1.02-1.34-1.4c-1.46-1.05-3.14-1.16-4.85-0.98c-1.58,0.17-2.97,0.79-3.94,2.13
		c-0.33,0.38-0.56,0.82-0.76,1.27c-0.17,0.58-0.43,1.15-0.41,1.78c0,0,0,0,0,0c-0.16,0.85-0.17,1.71,0.01,2.56
		c0,0.54,0.16,1.04,0.4,1.52c0.23,0.69,0.62,1.27,1.13,1.77c0,0,0.02,0.02,0.02,0.02c0.04,0.04,0.07,0.07,0.11,0.11
		c0,0,0.02,0.02,0.02,0.02c0.04,0.04,0.07,0.07,0.11,0.11c0,0,0.02,0.02,0.02,0.02c0.04,0.03,0.07,0.06,0.11,0.1
		c0,0,0.01,0.03,0.01,0.03l0.03,0c0.03,0.02,0.06,0.04,0.07,0.07c0.29,0.2,0.57,0.42,0.87,0.59c1.47,0.85,3.09,0.97,4.72,0.82
		c1.22-0.11,2.42-0.39,3.35-1.29c0.01,0.03,0.02,0.05,0.02,0.08c0.03-0.04,0.06-0.09,0.09-0.13c0.12,0.03,0.16-0.06,0.2-0.14
		c0.05-0.01,0.07-0.03,0.06-0.08c0.53-0.53,0.61-1.18,0.5-1.87c-0.11-0.65-0.34-0.73-0.93-0.43c-1.95,0.99-3.93,1.35-5.96,0.23
		c-0.04-0.1-0.13-0.14-0.23-0.16c-0.04-0.04-0.07-0.07-0.11-0.11c-0.27-0.45-0.55-0.88-0.69-1.39c0.04-0.42,0.37-0.26,0.59-0.26
		c1.74-0.01,3.47,0.04,5.21-0.03c0.91-0.03,1.9-0.09,2.25-1.23c0-0.17,0-0.35,0-0.52c0,0.17,0,0.35,0,0.52
		c0.18-0.14,0.1-0.34,0.13-0.51c0,0,0,0,0,0C89.8,57.85,89.79,57.54,89.68,57.24z M81.51,57.39c0.23-0.31,0.1-0.75,0.39-1.03
		c0.03-0.04,0.07-0.07,0.1-0.11c0.03-0.03,0.05-0.07,0.08-0.1c1.08-0.95,1.86-1.06,2.98-0.46c0.38,0.2,0.49,0.6,0.76,0.87
		c0.01-0.02,0.03-0.04,0.04-0.06c-0.01,0.02-0.03,0.04-0.04,0.06c-0.02,0.03-0.01,0.05,0.02,0.07c0.04,0.03,0.07,0.06,0.09,0.09
		c-0.02-0.03-0.05-0.06-0.09-0.09c-0.01,0.16,0.03,0.3,0.12,0.44l-0.01,0.04l0.03,0.03l0,0c0.13,0.64-0.11,0.84-0.77,0.81
		c-1.23-0.06-2.46-0.03-3.69-0.04C81.52,57.73,81.52,57.56,81.51,57.39z"/>
	<path class="st3" d="M82.01,56.24c-0.03,0.04-0.07,0.07-0.1,0.11C82,56.37,82.01,56.31,82.01,56.24z"/>
</g>
</svg>
